<svg xmlns="http://www.w3.org/2000/svg" width="22" height="22" viewBox="0 0 22 22">
  <path id="GitHub_Logo" data-name="GitHub Logo" d="M147.319,107.44a11.142,11.142,0,0,0-11,11.279,11.259,11.259,0,0,0,7.523,10.7c.55.1.751-.244.751-.544,0-.268-.009-.977-.015-1.919-3.06.682-3.705-1.511-3.705-1.511a2.969,2.969,0,0,0-1.222-1.65c-1-.7.076-.685.076-.685a2.316,2.316,0,0,1,1.685,1.162,2.309,2.309,0,0,0,3.2.937,2.434,2.434,0,0,1,.7-1.508c-2.442-.285-5.011-1.252-5.011-5.574a4.422,4.422,0,0,1,1.132-3.026,4.147,4.147,0,0,1,.108-2.985s.923-.3,3.025,1.156a10.183,10.183,0,0,1,5.508,0c2.1-1.46,3.022-1.156,3.022-1.156a4.148,4.148,0,0,1,.11,2.985,4.414,4.414,0,0,1,1.13,3.026c0,4.333-2.572,5.286-5.023,5.565a2.73,2.73,0,0,1,.747,2.089c0,1.508-.013,2.724-.013,3.094,0,.3.2.652.756.542a11.26,11.26,0,0,0,7.517-10.7A11.143,11.143,0,0,0,147.319,107.44Z" transform="translate(-136.32 -107.44)" fill="#263238" fill-rule="evenodd"/>
</svg>
